<?xml version="1.0" standalone="no"?>
<!DOCTYPE svg PUBLIC "-//W3C//DTD SVG 20010904//EN"
 "http://www.w3.org/TR/2001/REC-SVG-20010904/DTD/svg10.dtd">
<svg version="1.0" xmlns="http://www.w3.org/2000/svg"
 width="260.000000pt" height="260.000000pt" viewBox="0 0 260.000000 260.000000"
 preserveAspectRatio="xMidYMid meet">
<metadata>
Created by potrace 1.11, written by Peter Selinger 2001-2013
</metadata>
<g transform="translate(0.000000,260.000000) scale(0.100000,-0.100000)"
fill="#000000" stroke="none">
<path d="M0 1300 l0 -1300 1300 0 1300 0 0 1300 0 1300 -1300 0 -1300 0 0
-1300z m2400 0 l0 -1100 -1100 0 -1100 0 0 1100 0 1100 1100 0 1100 0 0 -1100z"/>
<path d="M1097 2163 c-17 -16 -3 -50 38 -94 52 -56 53 -65 26 -204 l-17 -90
-65 -7 c-35 -4 -121 -8 -191 -9 -126 -3 -126 -2 -192 31 -49 25 -69 31 -77 23
-25 -25 23 -114 79 -146 46 -27 134 -31 292 -13 74 8 136 14 137 12 5 -5 -19
-200 -27 -222 -5 -12 -28 -28 -56 -39 -118 -43 -233 -126 -321 -228 -143 -164
-197 -379 -134 -522 23 -53 90 -112 136 -121 111 -20 280 50 401 167 l50 49
24 -25 c28 -30 63 -32 90 -5 25 25 25 31 0 80 -11 22 -20 43 -20 48 0 4 32 51
72 103 91 119 188 267 224 342 16 31 33 57 39 57 23 -1 124 -48 159 -75 81
-61 128 -165 128 -280 0 -85 -20 -142 -71 -210 -76 -101 -279 -207 -441 -231
-56 -8 -90 -28 -90 -54 0 -64 158 -49 377 36 167 64 268 147 329 269 60 121
62 262 6 375 -57 115 -202 225 -344 260 -36 9 -52 20 -66 44 -21 35 -105 96
-133 96 -32 0 -40 -33 -20 -74 l19 -36 -82 0 c-44 0 -99 -3 -120 -7 l-39 -6 7
85 c12 146 6 139 122 160 147 26 366 83 430 112 49 23 55 28 52 52 -4 37 -47
67 -95 67 -24 0 -78 -17 -136 -42 -96 -41 -199 -73 -289 -89 l-46 -9 15 51 c8
28 24 69 35 91 31 60 29 108 -7 145 -55 58 -183 109 -208 83z m342 -789 c17
-4 31 -9 31 -13 0 -13 -121 -224 -177 -308 l-58 -87 -7 40 c-4 21 -11 109 -14
196 l-7 156 69 7 c38 3 74 8 79 10 17 6 51 5 84 -1z m-341 -202 c1 -93 9 -179
20 -235 l18 -88 -36 -33 c-127 -114 -274 -171 -353 -135 -93 42 -41 308 89
457 51 58 148 131 215 162 24 11 44 20 44 20 0 0 1 -66 3 -148z"/>
</g>
</svg>
