<?xml version="1.0" standalone="no"?>
<!DOCTYPE svg PUBLIC "-//W3C//DTD SVG 20010904//EN"
 "http://www.w3.org/TR/2001/REC-SVG-20010904/DTD/svg10.dtd">
<svg version="1.0" xmlns="http://www.w3.org/2000/svg"
 width="300.000000pt" height="300.000000pt" viewBox="0 0 300.000000 300.000000"
 preserveAspectRatio="xMidYMid meet">
<metadata>
Created by potrace 1.11, written by Peter Selinger 2001-2013
</metadata>
<g transform="translate(0.000000,300.000000) scale(0.100000,-0.100000)"
fill="#000000" stroke="none">
<path d="M0 1500 l0 -1500 185 0 185 0 6 25 c8 32 28 32 66 0 l30 -25 330 0
330 0 -5 23 -6 22 19 -23 c18 -21 24 -22 182 -22 162 1 163 1 140 20 -13 10
-34 46 -48 80 -20 50 -23 71 -19 127 6 79 21 94 105 105 30 4 88 11 128 17 41
5 79 14 85 20 6 6 17 11 25 11 14 0 41 27 42 43 0 4 -11 5 -25 1 -42 -11 -84
14 -110 66 -28 55 -36 62 -98 85 -26 10 -51 23 -54 29 -4 6 -6 60 -4 120 2 79
-1 111 -10 117 -15 9 -14 134 1 175 6 15 8 35 5 45 -7 20 -16 22 -77 21 -32
-1 -39 3 -44 24 -4 14 -13 24 -25 24 -28 0 -85 38 -97 66 -15 31 -15 79 -2
104 5 10 26 28 46 41 36 22 64 30 174 49 30 5 86 16 124 24 66 15 71 15 87 -3
15 -16 16 -26 9 -53 -16 -55 -12 -69 35 -114 25 -23 45 -47 45 -53 0 -6 4 -11
10 -11 5 0 7 -7 3 -16 -4 -10 -1 -15 8 -13 8 2 29 -1 47 -5 35 -8 39 -5 85 59
11 15 28 25 43 25 34 0 107 36 122 60 10 16 10 25 0 43 -6 12 -11 49 -10 81 2
50 -3 70 -30 123 -21 42 -42 69 -62 78 -29 15 -31 14 -76 -24 -54 -45 -100
-73 -150 -89 -28 -9 -31 -9 -15 1 42 25 225 216 225 234 -1 17 -1 17 -11 1 -5
-10 -14 -18 -19 -18 -12 0 17 67 41 99 14 18 17 27 9 35 -8 8 -22 -1 -51 -33
-40 -44 -54 -46 -54 -9 0 15 -12 24 -50 36 -27 10 -51 22 -51 27 -5 32 -17 53
-30 48 -8 -3 -14 -11 -14 -18 0 -22 -37 -55 -68 -61 -17 -3 -40 -15 -51 -26
-12 -10 -21 -15 -21 -11 0 18 -29 -49 -32 -74 -2 -18 -10 -30 -23 -34 -11 -3
-19 -11 -17 -17 1 -7 -3 -12 -9 -12 -6 0 -8 -8 -4 -19 16 -51 -109 -89 -237
-73 -102 13 -112 21 -104 90 4 34 2 59 -5 68 -12 15 -4 34 15 34 13 0 76 112
76 136 0 8 4 14 10 14 5 0 7 12 4 28 -4 25 0 29 46 50 40 18 50 27 50 46 0 26
21 39 45 30 11 -5 13 -2 9 10 -3 9 -17 16 -29 16 -13 0 -26 4 -29 8 -2 4 5 8
17 7 30 -1 125 -34 133 -46 3 -5 9 -7 14 -4 5 3 26 -2 47 -10 21 -9 56 -20 78
-25 105 -22 107 -24 103 -58 -4 -39 24 -40 39 -2 9 25 9 33 -4 46 -27 27 -92
64 -111 64 -10 0 -22 4 -28 9 -21 19 -104 33 -156 26 l-53 -7 28 27 c15 14 43
33 62 41 19 7 43 23 53 34 18 19 20 19 73 4 91 -27 141 -28 186 -6 34 18 39
25 40 56 1 19 -4 40 -11 45 -6 5 -56 17 -111 26 -55 9 -102 21 -106 27 -5 8
-47 9 -146 4 -332 -18 -306 -20 -331 19 -22 36 -32 65 -26 80 7 18 51 20 56 4
5 -14 48 6 48 21 0 6 7 10 15 10 14 0 19 11 16 38 -1 6 7 12 19 12 16 0 23 10
32 46 7 26 18 49 25 51 6 3 9 12 6 21 -5 11 -2 14 10 9 14 -5 17 1 17 38 0 42
-6 50 -32 46 -4 0 -17 7 -27 16 -19 16 -19 17 5 35 30 24 31 45 2 52 -13 3 13
3 57 1 157 -9 333 -68 438 -149 26 -20 51 -36 57 -36 5 0 15 -8 22 -18 7 -10
33 -33 58 -52 56 -44 76 -66 97 -110 10 -19 27 -43 38 -52 20 -17 20 -17 -7
-18 -15 0 -29 -4 -32 -9 -5 -8 153 -21 263 -21 37 0 51 -3 42 -9 -10 -7 -4 -9
19 -8 18 1 34 -3 36 -8 7 -17 -58 -40 -119 -41 -39 -2 -65 -8 -77 -19 -18 -16
-20 -16 -46 4 -14 11 -31 18 -37 14 -6 -4 -1 -10 11 -14 26 -10 28 -25 6 -46
-13 -13 -17 -14 -24 -3 -13 20 -40 -6 -40 -37 0 -22 4 -25 25 -20 19 3 29 -1
36 -15 12 -22 70 -77 82 -78 4 0 16 -9 27 -20 l21 -21 -21 -26 c-28 -35 -25
-52 10 -64 17 -6 30 -15 30 -20 0 -5 7 -9 15 -9 8 0 15 -6 15 -12 0 -9 4 -8
10 2 8 13 11 13 19 1 10 -16 35 -5 25 11 -4 6 -2 8 3 5 12 -7 23 14 23 41 0
10 9 23 20 30 15 9 20 23 20 57 0 25 4 45 9 45 5 0 12 14 16 30 6 25 9 29 21
19 11 -9 14 -8 14 5 0 19 16 21 27 4 4 -7 18 -22 31 -32 23 -20 23 -20 16 0
-7 18 -7 18 13 1 11 -9 27 -15 35 -12 18 7 47 -19 50 -43 5 -43 2 -442 -3
-442 -3 0 -15 -18 -27 -39 -22 -38 -39 -51 -69 -51 -9 0 -40 -27 -70 -60 -30
-32 -62 -62 -72 -65 -42 -13 -107 32 -164 115 -17 25 -45 60 -62 78 -16 19
-33 40 -38 47 -4 7 -31 21 -60 30 -28 10 -56 21 -61 26 -16 14 -29 10 -22 -6
3 -8 -3 -19 -14 -25 -24 -13 -20 -33 16 -73 17 -17 39 -45 49 -62 10 -16 35
-50 56 -75 73 -88 71 -182 -5 -214 -39 -16 -61 -47 -45 -63 8 -8 6 -22 -6 -47
-11 -24 -15 -46 -10 -64 16 -63 16 -109 0 -152 -23 -61 -29 -86 -74 -304 -42
-199 -47 -210 -108 -227 -24 -8 -63 14 -63 35 0 7 -13 25 -30 39 -28 25 -30
32 -30 95 0 78 -17 115 -40 88 -7 -9 -15 -39 -18 -67 -4 -47 -2 -55 37 -109
26 -38 39 -65 34 -76 -5 -13 -2 -15 15 -9 19 6 22 3 22 -25 0 -17 4 -40 10
-50 5 -10 12 -67 14 -127 3 -59 11 -136 17 -170 l13 -63 178 0 179 0 -35 38
c-20 20 -36 40 -36 44 0 4 -9 16 -21 27 -20 18 -19 41 1 41 5 0 42 -33 82 -73
l73 -72 348 -3 347 -3 0 1501 0 1500 -1500 0 -1500 0 0 -1500z m1277 1374 c-3
-3 -12 -4 -19 -1 -8 3 -5 6 6 6 11 1 17 -2 13 -5z m1062 -590 c2 -2 -12 -4
-33 -4 -22 0 -35 4 -31 10 5 9 52 4 64 -6z m-603 -3 c5 -5 20 -11 34 -14 21
-3 19 -5 -8 -6 -18 0 -40 6 -48 14 -13 12 -13 15 -2 15 8 0 18 -4 24 -9z m639
-41 c18 -20 17 -20 -13 -20 -34 0 -35 1 -26 24 8 21 17 20 39 -4z m-1285 -139
c0 -12 -46 -41 -65 -41 -8 0 -38 -16 -66 -37 -28 -20 -80 -44 -117 -54 -36
-11 -69 -24 -72 -30 -4 -5 -8 -34 -9 -62 -1 -29 -3 -72 -5 -97 -4 -62 8 -90
38 -90 35 0 43 23 40 117 l-2 82 31 -4 c46 -6 63 -32 59 -89 -3 -38 -9 -49
-28 -58 -13 -6 -24 -15 -24 -20 0 -14 92 -108 106 -108 18 0 71 -47 62 -55 -4
-4 -31 5 -60 19 -41 20 -62 25 -87 20 -18 -4 -57 -1 -88 6 -45 11 -56 11 -63
0 -5 -9 -18 -11 -40 -7 -26 6 -33 3 -37 -13 -3 -11 -9 -20 -13 -20 -5 0 -15
-6 -22 -14 -11 -10 -18 -11 -29 -2 -12 9 -13 42 -6 221 5 121 14 221 21 235
10 23 18 26 106 33 52 4 118 14 145 22 28 8 69 14 92 13 23 0 58 8 80 20 45
23 53 25 53 13z m-530 -25 c0 -3 -4 -8 -10 -11 -5 -3 -10 -1 -10 4 0 6 5 11
10 11 6 0 10 -2 10 -4z m487 -48 c-3 -8 -6 -5 -6 6 -1 11 2 17 5 13 3 -3 4
-12 1 -19z m-12 -65 c-11 -80 -11 -86 1 -133 12 -47 9 -70 -8 -70 -6 0 -17 -8
-24 -17 -12 -16 -13 -8 -13 52 0 67 17 156 32 171 4 4 7 16 7 26 0 10 3 18 6
18 3 0 3 -21 -1 -47z m-300 -413 c13 -6 15 -9 5 -9 -8 0 -22 4 -30 9 -18 12
-2 12 25 0z m430 -11 c15 -15 -18 -10 -45 6 l-25 15 30 -6 c17 -4 34 -11 40
-15z m125 -29 c0 -5 -5 -10 -11 -10 -5 0 -7 5 -4 10 3 6 8 10 11 10 2 0 4 -4
4 -10z m-710 -375 c0 -23 -63 -19 -94 6 -37 29 -33 47 11 51 28 2 43 -3 60
-20 13 -13 23 -29 23 -37z m1482 -912 c49 -36 50 -38 27 -44 -40 -11 -47 -10
-69 13 -17 19 -29 68 -15 68 3 0 28 -17 57 -37z"/>
<path d="M1995 2320 c-3 -5 1 -23 10 -39 18 -35 20 -65 4 -55 -7 4 -10 1 -7
-6 2 -7 16 -14 31 -16 28 -3 47 18 47 52 0 14 -3 14 -15 4 -22 -18 -31 -4 -15
25 7 14 11 27 9 29 -12 10 -59 15 -64 6z"/>
<path d="M2490 2023 c0 -13 5 -23 10 -23 13 0 13 11 0 30 -8 12 -10 11 -10 -7z"/>
<path d="M2525 2000 c-8 -13 4 -32 16 -25 12 8 12 35 0 35 -6 0 -13 -4 -16
-10z"/>
<path d="M2456 1954 c-5 -13 -9 -14 -21 -4 -13 11 -15 8 -15 -14 0 -15 -4 -36
-10 -46 -5 -10 -11 -39 -11 -63 -2 -37 -7 -49 -30 -66 -19 -14 -28 -29 -26
-43 1 -13 -6 -26 -18 -32 -11 -6 -21 -20 -23 -31 -2 -16 -1 -17 7 -6 8 12 15
10 41 -12 32 -28 60 -35 60 -16 0 5 4 8 10 4 17 -11 50 19 50 46 0 15 6 32 14
38 8 7 18 31 21 54 4 23 12 49 18 58 12 19 -9 139 -24 139 -5 0 -9 -6 -9 -12
-1 -8 -6 -6 -14 5 -12 16 -14 16 -20 1z"/>
<path d="M1605 1950 c-3 -5 3 -10 14 -10 12 0 21 5 21 10 0 6 -6 10 -14 10 -8
0 -18 -4 -21 -10z"/>
<path d="M2261 1940 c-1 -8 8 -21 18 -27 16 -10 20 -9 25 3 9 24 7 27 -14 21
-10 -3 -21 0 -24 7 -2 6 -5 5 -5 -4z"/>
<path d="M1650 1930 c0 -5 5 -10 10 -10 6 0 10 5 10 10 0 6 -4 10 -10 10 -5 0
-10 -4 -10 -10z"/>
<path d="M1406 1913 c-15 -15 -4 -52 25 -84 16 -19 27 -27 24 -18 -4 10 -1 20
5 24 7 4 14 -2 17 -14 7 -26 15 -27 30 -3 7 13 8 23 1 33 -8 11 -10 12 -15 1
-3 -9 -11 -4 -24 17 -19 31 -52 55 -63 44z"/>
<path d="M2035 1843 c-10 -18 -22 -30 -25 -28 -8 5 -44 -55 -36 -62 3 -3 11 6
17 21 7 14 16 26 21 26 16 0 49 42 46 58 -3 13 -8 9 -23 -15z"/>
<path d="M1318 1822 c-20 -4 -23 -28 -8 -67 8 -21 14 -25 33 -19 32 9 32 9 11
52 -13 26 -24 37 -36 34z"/>
<path d="M2111 1796 c-27 -32 17 -58 57 -33 17 12 15 30 -3 23 -9 -3 -18 1
-21 9 -8 19 -18 19 -33 1z"/>
<path d="M1544 1108 c-47 -56 -58 -110 -34 -172 13 -36 24 -33 45 17 10 23 29
66 42 95 14 30 23 55 21 57 -6 5 -47 25 -51 25 -2 0 -12 -10 -23 -22z"/>
<path d="M1801 1029 c-19 -6 -59 -27 -90 -47 -54 -36 -56 -40 -62 -90 -9 -67
-15 -82 -34 -82 -28 0 -15 -26 24 -47 28 -15 42 -18 50 -10 8 8 6 16 -5 28
-14 16 -12 18 25 24 34 6 51 1 102 -24 34 -17 68 -31 75 -31 15 0 74 48 74 60
0 5 -16 24 -36 43 -48 45 -39 59 35 56 31 -1 64 1 74 5 26 12 22 60 -8 91 -14
14 -27 25 -28 25 -33 7 -171 6 -196 -1z"/>
</g>
</svg>
